<svg xmlns="http://www.w3.org/2000/svg" x="0px" y="0px" width="100" height="100" viewBox="0 0 40 40">
<path fill="#4e7ab5" d="M28.999 8.045H34.668V12.288H28.999z" transform="rotate(-45.001 31.833 10.167)"></path><path fill="#4e7ab5" d="M16 4H23V8H16z"></path><path fill="#8bb7f0" d="M16,4.5c-0.275,0-0.5-0.224-0.5-0.5V1c0-0.276,0.225-0.5,0.5-0.5h7c0.275,0,0.5,0.224,0.5,0.5v3 c0,0.276-0.225,0.5-0.5,0.5H16z"></path><path fill="#4e7ab5" d="M23,1v3h-7V1H23 M23,0h-7c-0.552,0-1,0.448-1,1v3c0,0.552,0.448,1,1,1h7c0.552,0,1-0.448,1-1V1 C24,0.448,23.552,0,23,0L23,0z"></path><path fill="#8bb7f0" d="M34.261,11.49c-0.08,0-0.156-0.031-0.213-0.088l-3.46-3.459c-0.117-0.117-0.117-0.309,0-0.426 l1.929-1.929C32.573,5.531,32.649,5.5,32.729,5.5c0.081,0,0.156,0.031,0.213,0.088l3.46,3.459c0.117,0.117,0.117,0.309,0,0.426 l-1.929,1.928C34.417,11.458,34.341,11.49,34.261,11.49z"></path><path fill="#4e7ab5" d="M32.73,6.082l3.178,3.178l-1.647,1.647L31.082,7.73L32.73,6.082 M32.73,5 c-0.205,0-0.41,0.078-0.566,0.235l-1.929,1.929c-0.313,0.313-0.313,0.82,0,1.133l3.459,3.459c0.156,0.156,0.361,0.235,0.566,0.235 c0.205,0,0.41-0.078,0.566-0.235l1.929-1.929c0.313-0.313,0.313-0.82,0-1.133l-3.459-3.459C33.14,5.078,32.935,5,32.73,5L32.73,5z"></path><path fill="#8bb7f0" d="M19.5,39.5c-8.822,0-16-7.178-16-16s7.178-16,16-16s16,7.178,16,16S28.322,39.5,19.5,39.5z"></path><path fill="#4e7ab5" d="M19.5,8C28.047,8,35,14.953,35,23.5S28.047,39,19.5,39S4,32.047,4,23.5S10.953,8,19.5,8 M19.5,7 C10.387,7,3,14.387,3,23.5S10.387,40,19.5,40S36,32.613,36,23.5S28.613,7,19.5,7L19.5,7z"></path><path fill="#f2faff" d="M19.5,36.5c-7.168,0-13-5.832-13-13s5.832-13,13-13s13,5.832,13,13S26.668,36.5,19.5,36.5z"></path><path fill="#4e7ab5" d="M19.5,11C26.393,11,32,16.607,32,23.5S26.393,36,19.5,36S7,30.393,7,23.5S12.607,11,19.5,11 M19.5,10C12.044,10,6,16.044,6,23.5S12.044,37,19.5,37S33,30.956,33,23.5S26.956,10,19.5,10L19.5,10z"></path><path fill="none" stroke="#66798f" stroke-linecap="round" stroke-miterlimit="10" d="M14 18L19.5 23.5"></path><path fill="#66798f" d="M19.5 22A1.5 1.5 0 1 0 19.5 25 1.5 1.5 0 1 0 19.5 22zM20 11.025C19.833 11.019 19.669 11 19.5 11s-.333.019-.5.025V13h1V11.025zM19 35.975C19.167 35.981 19.331 36 19.5 36s.333-.019.5-.025V34h-1V35.975zM7.025 24H9v-1H7.025C7.019 23.167 7 23.331 7 23.5S7.019 23.833 7.025 24zM30 24h1.975C31.981 23.833 32 23.669 32 23.5s-.019-.333-.025-.5H30V24zM13.817 14.657l.866-.5-.991-1.716c-.296.156-.581.328-.862.506L13.817 14.657zM25.183 32.343l-.866.5.991 1.716c.296-.156.581-.328.862-.506L25.183 32.343zM8.441 29.308c.156.296.328.581.506.862l1.71-.987-.5-.866L8.441 29.308zM30.559 17.692c-.156-.296-.328-.581-.506-.862l-1.71.987.5.866L30.559 17.692zM10.157 18.683l.5-.866-1.71-.987c-.178.281-.35.567-.506.862L10.157 18.683zM28.843 28.317l-.5.866 1.71.987c.178-.281.35-.567.506-.862L28.843 28.317zM12.83 34.053c.281.178.567.35.862.506l.991-1.716-.866-.5L12.83 34.053zM25.308 12.441l-.991 1.716.866.5.987-1.71C25.889 12.768 25.604 12.597 25.308 12.441z"></path>
</svg>
